<?xml version="1.0" standalone="no"?>
<!DOCTYPE svg PUBLIC "-//W3C//DTD SVG 20010904//EN"
 "http://www.w3.org/TR/2001/REC-SVG-20010904/DTD/svg10.dtd">
<svg version="1.0" xmlns="http://www.w3.org/2000/svg"
 width="715.000000pt" height="879.000000pt" viewBox="0 0 715.000000 879.000000"
 preserveAspectRatio="xMidYMid meet">
<metadata>
Created by potrace 1.16, written by Peter Selinger 2001-2019
</metadata>
<g transform="translate(0.000000,879.000000) scale(0.100000,-0.100000)"
fill="#000000" stroke="none">
<path d="M420 8565 l0 -215 -207 -2 -208 -3 0 -1272 c0 -1263 0 -1272 20
-1279 11 -3 617 -8 1348 -11 l1327 -5 0 -2884 0 -2884 1005 0 1005 0 0 214 0
213 215 -5 215 -5 0 2677 0 2676 785 0 785 0 0 215 0 215 215 0 215 0 0 1285
0 1285 -3360 0 -3360 0 0 -215z m6648 125 c11 -24 13 -248 11 -1205 -2 -647
-6 -1181 -10 -1187 -14 -23 -208 -30 -1044 -36 -651 -5 -875 -10 -891 -19 -12
-7 -24 -27 -28 -45 -19 -90 -25 -773 -27 -2768 -1 -1202 -5 -2351 -8 -2555
l-6 -370 -160 -6 c-88 -4 -510 -10 -937 -13 l-778 -7 -2 2763 c-2 1520 -5
2585 -8 2368 -3 -217 -7 -377 -9 -355 -2 22 -6 252 -9 512 -4 259 -10 474 -14
478 -3 4 -604 10 -1335 15 -730 5 -1330 9 -1332 9 -7 2 8 2369 16 2401 l9 35
3249 5 c1788 3 3261 6 3275 8 19 1 28 -5 38 -28z m-6649 -1442 l1 -1038 1355
0 1355 0 0 -2890 0 -2890 780 0 781 0 -12 -21 c-6 -12 -13 -93 -17 -185 l-5
-164 -948 0 -949 0 -1 658 c-1 1366 -19 5028 -25 5059 -4 23 -13 33 -32 37
-15 4 -616 11 -1337 17 -721 6 -1311 12 -1312 13 -5 4 -23 2439 -18 2444 3 4
85 10 182 14 97 4 179 10 182 13 3 3 9 -2 12 -12 4 -10 8 -485 8 -1055z m6257
-1051 c5 -4 3 -17 -4 -27 -8 -13 -12 -70 -12 -173 l0 -154 -717 -7 c-395 -4
-734 -10 -755 -15 -48 -11 -48 -10 -48 212 l0 177 764 -2 c420 -2 768 -7 772
-11z"/>
</g>
</svg>
